<svg width="21" height="20" viewBox="0 0 21 20" fill="none" xmlns="http://www.w3.org/2000/svg">
<path d="M15.1586 2.17611C15.4249 1.56201 15.591 1.03271 15.591 0.530191C15.591 0.446289 15.558 0.390949 15.558 0.307047C15.558 0.223144 15.525 0.111572 15.4909 0C13.8264 0.307047 12.6625 0.920248 11.9298 1.81283C11.1972 2.67773 10.8319 3.70956 10.7978 4.90918C11.3974 4.85295 11.8958 4.76994 12.2621 4.68604C12.7615 4.54679 13.294 4.26742 13.8264 3.8488C14.426 3.34628 14.8913 2.73307 15.1576 2.17521L15.1586 2.17611ZM13.261 4.96541C12.2621 5.24479 11.5635 5.35636 11.1972 5.35636C10.8979 5.35636 10.2654 5.24479 9.23349 5.02164C8.23461 4.77083 7.40292 4.6307 6.67133 4.6307C5.04096 4.6307 3.67575 5.21623 2.57783 6.38818C1.51292 7.56014 0.980469 9.03825 0.980469 10.8787C0.980469 12.8594 1.67905 14.8677 3.07727 16.9313C4.5085 18.9958 5.97275 20 7.40398 20C7.87041 20 8.46889 19.8608 9.30058 19.6091C10.0662 19.3582 10.7318 19.2181 11.3303 19.2181C11.9288 19.2181 12.6614 19.3297 13.4931 19.5805C14.3589 19.8313 15.0244 19.9429 15.5228 19.9429C16.7539 19.9429 17.986 19.1619 19.217 17.6275C19.6163 17.125 19.9827 16.5957 20.2819 16.0932C20.5481 15.6192 20.7813 15.1167 20.9805 14.6427C20.0817 14.4196 19.316 13.8894 18.6845 13.1084C18.052 12.2997 17.7197 11.4071 17.7197 10.4307C17.7197 9.51042 18.019 8.70085 18.6185 7.94841C18.9848 7.55746 19.5503 7.05583 20.283 6.52564C20.0497 6.27483 19.7835 6.02312 19.5503 5.82854C19.2841 5.63306 19.0509 5.46615 18.8176 5.32601C17.8859 4.82349 16.854 4.54501 15.723 4.54501C15.0575 4.54501 14.2258 4.71281 13.2599 4.96363L13.261 4.96541Z" fill="black"/>
</svg>
