<svg width="20" height="20" viewBox="0 0 20 20" fill="none" xmlns="http://www.w3.org/2000/svg">
<path fill-rule="evenodd" clip-rule="evenodd" d="M19.8186 8.00396H10.2084C10.2084 9.0034 10.2084 11.0021 10.2022 12.0015H15.7711C15.5577 13.001 14.8011 14.4005 13.7321 15.1051C13.7321 15.1051 13.73 15.1109 13.728 15.1099C12.3066 16.0484 10.431 16.2614 9.03824 15.9815C6.8552 15.5478 5.12755 13.9646 4.42608 11.9537C4.43017 11.9507 4.43324 11.923 4.43631 11.921C3.99725 10.6737 3.99725 9.0034 4.43631 8.00396H4.43528C5.00095 6.16699 6.78065 4.491 8.96675 4.03226C10.725 3.65946 12.709 4.06302 14.1681 5.42826C14.3621 5.23837 16.8534 2.80582 17.0403 2.60793C12.0555 -1.90655 4.07382 -0.318482 1.08721 5.51127H1.08619C1.08619 5.51127 1.08722 5.51151 1.08109 5.5225C-0.396384 8.3859 -0.335122 11.7599 1.0913 14.4864C1.08722 14.4894 1.08416 14.4912 1.08109 14.4942C2.37376 17.0028 4.72629 18.9267 7.56076 19.6593C10.5719 20.4489 14.4039 19.9092 16.9709 17.5875L16.9739 17.5904C19.1488 15.6315 20.5027 12.2946 19.8186 8.00396Z" fill="black"/>
</svg>
